<mxfile host="app.diagrams.net" modified="2020-10-28T20:42:45.874Z" agent="5.0 (X11)" etag="TtE7riWyI-87MX0vt6U8" version="13.8.6" type="github">
  <diagram id="5traIhpLM5jQMwLdFxB_" name="Page-1">
    <mxGraphModel dx="643" dy="383" grid="1" gridSize="10" guides="1" tooltips="1" connect="1" arrows="1" fold="1" page="1" pageScale="1" pageWidth="850" pageHeight="1100" math="0" shadow="0">
      <root>
        <mxCell id="0" />
        <mxCell id="1" parent="0" />
        <mxCell id="409GrsexgnhYUh9YllDB-18" value="Scene" style="swimlane;fontStyle=1;align=center;verticalAlign=top;childLayout=stackLayout;horizontal=1;startSize=26;horizontalStack=0;resizeParent=1;resizeParentMax=0;resizeLast=0;collapsible=1;marginBottom=0;" parent="1" vertex="1">
          <mxGeometry x="20" y="30" width="260" height="410" as="geometry">
            <mxRectangle x="20" y="30" width="70" height="26" as="alternateBounds" />
          </mxGeometry>
        </mxCell>
        <mxCell id="409GrsexgnhYUh9YllDB-19" value="+ canvas : Canvas&#xa;+ sprites[] : Sprite&#xa;+ frameRate : Integer&#xa;+ keyboardState[] : Bool&#xa;" style="text;strokeColor=none;fillColor=none;align=left;verticalAlign=top;spacingLeft=4;spacingRight=4;overflow=hidden;rotatable=0;points=[[0,0.5],[1,0.5]];portConstraint=eastwest;" parent="409GrsexgnhYUh9YllDB-18" vertex="1">
          <mxGeometry y="26" width="260" height="114" as="geometry" />
        </mxCell>
        <mxCell id="409GrsexgnhYUh9YllDB-20" value="" style="line;strokeWidth=1;fillColor=none;align=left;verticalAlign=middle;spacingTop=-1;spacingLeft=3;spacingRight=3;rotatable=0;labelPosition=right;points=[];portConstraint=eastwest;" parent="409GrsexgnhYUh9YllDB-18" vertex="1">
          <mxGeometry y="140" width="260" height="8" as="geometry" />
        </mxCell>
        <mxCell id="409GrsexgnhYUh9YllDB-21" value="+ start(void) : void&#xa;+ end(void) : void&#xa;+ pause(void) : void&#xa;+ clear(void) : void&#xa;+ addSprite(Sprite) : void&#xa;+ showCursor(void) : void&#xa;+ hideCursor(void) : void&#xa;+ getMousePos(void) : Integer&#xa;+ hideScene(void) : void&#xa;+ showScene (void) : void&#xa;&#xa;&#xa;&#xa;" style="text;strokeColor=none;fillColor=none;align=left;verticalAlign=top;spacingLeft=4;spacingRight=4;overflow=hidden;rotatable=0;points=[[0,0.5],[1,0.5]];portConstraint=eastwest;" parent="409GrsexgnhYUh9YllDB-18" vertex="1">
          <mxGeometry y="148" width="260" height="262" as="geometry" />
        </mxCell>
        <mxCell id="409GrsexgnhYUh9YllDB-22" value="Canvas" style="swimlane;fontStyle=1;align=center;verticalAlign=top;childLayout=stackLayout;horizontal=1;startSize=26;horizontalStack=0;resizeParent=1;resizeParentMax=0;resizeLast=0;collapsible=1;marginBottom=0;" parent="1" vertex="1">
          <mxGeometry x="300" y="30" width="160" height="310" as="geometry">
            <mxRectangle x="300" y="30" width="70" height="26" as="alternateBounds" />
          </mxGeometry>
        </mxCell>
        <mxCell id="409GrsexgnhYUh9YllDB-23" value="+ xpos : Int&#xa;+ ypos : Int&#xa;+ xOffset : Int&#xa;+ yOffset : Int&#xa;+ width : Int&#xa;+ height : Int&#xa;+ element : Element&#xa;+ context : Context&#xa;&#xa;" style="text;strokeColor=none;fillColor=none;align=left;verticalAlign=top;spacingLeft=4;spacingRight=4;overflow=hidden;rotatable=0;points=[[0,0.5],[1,0.5]];portConstraint=eastwest;" parent="409GrsexgnhYUh9YllDB-22" vertex="1">
          <mxGeometry y="26" width="160" height="144" as="geometry" />
        </mxCell>
        <mxCell id="409GrsexgnhYUh9YllDB-24" value="" style="line;strokeWidth=1;fillColor=none;align=left;verticalAlign=middle;spacingTop=-1;spacingLeft=3;spacingRight=3;rotatable=0;labelPosition=right;points=[];portConstraint=eastwest;" parent="409GrsexgnhYUh9YllDB-22" vertex="1">
          <mxGeometry y="170" width="160" height="8" as="geometry" />
        </mxCell>
        <mxCell id="409GrsexgnhYUh9YllDB-25" value="+ method(type): type" style="text;strokeColor=none;fillColor=none;align=left;verticalAlign=top;spacingLeft=4;spacingRight=4;overflow=hidden;rotatable=0;points=[[0,0.5],[1,0.5]];portConstraint=eastwest;" parent="409GrsexgnhYUh9YllDB-22" vertex="1">
          <mxGeometry y="178" width="160" height="132" as="geometry" />
        </mxCell>
        <mxCell id="409GrsexgnhYUh9YllDB-26" value="Sprite" style="swimlane;fontStyle=1;align=center;verticalAlign=top;childLayout=stackLayout;horizontal=1;startSize=26;horizontalStack=0;resizeParent=1;resizeParentMax=0;resizeLast=0;collapsible=1;marginBottom=0;" parent="1" vertex="1">
          <mxGeometry x="480" y="30" width="160" height="280" as="geometry" />
        </mxCell>
        <mxCell id="409GrsexgnhYUh9YllDB-27" value="+ xpos : Int&#xa;+ ypos : Int&#xa;+ dx : Int&#xa;+ dy : Int&#xa;+ image : String&#xa;+ scene : Scene&#xa;" style="text;strokeColor=none;fillColor=none;align=left;verticalAlign=top;spacingLeft=4;spacingRight=4;overflow=hidden;rotatable=0;points=[[0,0.5],[1,0.5]];portConstraint=eastwest;" parent="409GrsexgnhYUh9YllDB-26" vertex="1">
          <mxGeometry y="26" width="160" height="94" as="geometry" />
        </mxCell>
        <mxCell id="409GrsexgnhYUh9YllDB-28" value="" style="line;strokeWidth=1;fillColor=none;align=left;verticalAlign=middle;spacingTop=-1;spacingLeft=3;spacingRight=3;rotatable=0;labelPosition=right;points=[];portConstraint=eastwest;" parent="409GrsexgnhYUh9YllDB-26" vertex="1">
          <mxGeometry y="120" width="160" height="8" as="geometry" />
        </mxCell>
        <mxCell id="409GrsexgnhYUh9YllDB-29" value="+ update(void) : void&#xa;+ draw (void) : void&#xa;+ hide (void) : void&#xa;+ show(void) : void&#xa;+ changeAngle(float) : void&#xa;+ changeSpeed(float) : void" style="text;strokeColor=none;fillColor=none;align=left;verticalAlign=top;spacingLeft=4;spacingRight=4;overflow=hidden;rotatable=0;points=[[0,0.5],[1,0.5]];portConstraint=eastwest;" parent="409GrsexgnhYUh9YllDB-26" vertex="1">
          <mxGeometry y="128" width="160" height="152" as="geometry" />
        </mxCell>
      </root>
    </mxGraphModel>
  </diagram>
</mxfile>
